<svg width="25" height="27" viewBox="0 0 25 27" fill="none" xmlns="http://www.w3.org/2000/svg">
<path id="Vector" d="M12.5 14C14.1576 14 15.7473 13.3679 16.9194 12.2426C18.0915 11.1174 18.75 9.5913 18.75 8C18.75 6.4087 18.0915 4.88258 16.9194 3.75736C15.7473 2.63214 14.1576 2 12.5 2C10.8424 2 9.25268 2.63214 8.08058 3.75736C6.90848 4.88258 6.25 6.4087 6.25 8C6.25 9.5913 6.90848 11.1174 8.08058 12.2426C9.25268 13.3679 10.8424 14 12.5 14ZM12.5 16C10.2899 16 8.17025 15.1571 6.60744 13.6569C5.04464 12.1566 4.16667 10.1217 4.16667 8C4.16667 5.87827 5.04464 3.84344 6.60744 2.34315C8.17025 0.842855 10.2899 0 12.5 0C14.7101 0 16.8298 0.842855 18.3926 2.34315C19.9554 3.84344 20.8333 5.87827 20.8333 8C20.8333 10.1217 19.9554 12.1566 18.3926 13.6569C16.8298 15.1571 14.7101 16 12.5 16ZM22.9167 26V23C22.9167 22.2044 22.5874 21.4413 22.0014 20.8787C21.4153 20.3161 20.6205 20 19.7917 20H5.20833C4.37953 20 3.58468 20.3161 2.99862 20.8787C2.41257 21.4413 2.08333 22.2044 2.08333 23V26C2.08333 26.2652 1.97359 26.5196 1.77824 26.7071C1.58289 26.8946 1.31793 27 1.04167 27C0.765399 27 0.500448 26.8946 0.305097 26.7071C0.109747 26.5196 0 26.2652 0 26V23C0 21.6739 0.548733 20.4021 1.52549 19.4645C2.50224 18.5268 3.827 18 5.20833 18H19.7917C21.173 18 22.4978 18.5268 23.4745 19.4645C24.4513 20.4021 25 21.6739 25 23V26C25 26.2652 24.8903 26.5196 24.6949 26.7071C24.4996 26.8946 24.2346 27 23.9583 27C23.6821 27 23.4171 26.8946 23.2218 26.7071C23.0264 26.5196 22.9167 26.2652 22.9167 26Z" fill="black"/>
</svg>
